<svg xmlns="http://www.w3.org/2000/svg" version="1.1" xmlns:xlink="http://www.w3.org/1999/xlink" xmlns:svgjs="http://svgjs.dev/svgjs" width="1550" height="560" preserveAspectRatio="none" viewBox="0 0 1550 560"><g mask="url(&quot;#SvgjsMask1093&quot;)" fill="none"><path d="M 0,92 C 77.6,111 232.8,183.8 388,187 C 543.2,190.2 620.8,112.2 776,108 C 931.2,103.8 1009.2,167.8 1164,166 C 1318.8,164.2 1472.8,112.4 1550,99L1550 560L0 560z" fill="rgba(61, 152, 248, 1)"></path><path d="M 0,338 C 77.6,365.6 232.8,486.4 388,476 C 543.2,465.6 620.8,269.8 776,286 C 931.2,302.2 1009.2,535.4 1164,557 C 1318.8,578.6 1472.8,426.6 1550,394L1550 560L0 560z" fill="rgba(119, 178, 239, 1)"></path></g><defs><mask id="SvgjsMask1093"><rect width="1550" height="560" fill="#ffffff"></rect></mask></defs></svg>